<?xml version="1.0" encoding="UTF-8"?>
<!--Generator: Apple Native CoreSVG 149-->
<!DOCTYPE svg
PUBLIC "-//W3C//DTD SVG 1.1//EN"
       "http://www.w3.org/Graphics/SVG/1.1/DTD/svg11.dtd">
<svg version="1.1" xmlns="http://www.w3.org/2000/svg" xmlns:xlink="http://www.w3.org/1999/xlink" width="3300" height="2200">
 <!--glyph: "uni100AD5.medium", point size: 100.000000, font version: "Version 16.0d18e1", template writer version: "8"-->
 <g id="Notes">
  <rect height="2200" id="artboard" style="fill:white;opacity:1" width="3300" x="0" y="0"/>
  <line id="" style="fill:none;stroke:black;opacity:1;stroke-width:0.5;" x1="263" x2="3036" y1="292" y2="292"/>
  <text style="stroke:none;fill:black;font-family:-apple-system,&quot;SF Pro Display&quot;,&quot;SF Pro Text&quot;,Helvetica,sans-serif;font-weight:bold;" transform="matrix(1 0 0 1 263 322)">Weight/Scale Variations</text>
  <text style="stroke:none;fill:black;font-family:-apple-system,&quot;SF Pro Display&quot;,&quot;SF Pro Text&quot;,Helvetica,sans-serif;text-anchor:middle;" transform="matrix(1 0 0 1 559.711 322)">Ultralight</text>
  <text style="stroke:none;fill:black;font-family:-apple-system,&quot;SF Pro Display&quot;,&quot;SF Pro Text&quot;,Helvetica,sans-serif;text-anchor:middle;" transform="matrix(1 0 0 1 856.422 322)">Thin</text>
  <text style="stroke:none;fill:black;font-family:-apple-system,&quot;SF Pro Display&quot;,&quot;SF Pro Text&quot;,Helvetica,sans-serif;text-anchor:middle;" transform="matrix(1 0 0 1 1153.13 322)">Light</text>
  <text style="stroke:none;fill:black;font-family:-apple-system,&quot;SF Pro Display&quot;,&quot;SF Pro Text&quot;,Helvetica,sans-serif;text-anchor:middle;" transform="matrix(1 0 0 1 1449.84 322)">Regular</text>
  <text style="stroke:none;fill:black;font-family:-apple-system,&quot;SF Pro Display&quot;,&quot;SF Pro Text&quot;,Helvetica,sans-serif;text-anchor:middle;" transform="matrix(1 0 0 1 1746.56 322)">Medium</text>
  <text style="stroke:none;fill:black;font-family:-apple-system,&quot;SF Pro Display&quot;,&quot;SF Pro Text&quot;,Helvetica,sans-serif;text-anchor:middle;" transform="matrix(1 0 0 1 2043.27 322)">Semibold</text>
  <text style="stroke:none;fill:black;font-family:-apple-system,&quot;SF Pro Display&quot;,&quot;SF Pro Text&quot;,Helvetica,sans-serif;text-anchor:middle;" transform="matrix(1 0 0 1 2339.98 322)">Bold</text>
  <text style="stroke:none;fill:black;font-family:-apple-system,&quot;SF Pro Display&quot;,&quot;SF Pro Text&quot;,Helvetica,sans-serif;text-anchor:middle;" transform="matrix(1 0 0 1 2636.69 322)">Heavy</text>
  <text style="stroke:none;fill:black;font-family:-apple-system,&quot;SF Pro Display&quot;,&quot;SF Pro Text&quot;,Helvetica,sans-serif;text-anchor:middle;" transform="matrix(1 0 0 1 2933.4 322)">Black</text>
  <line id="" style="fill:none;stroke:black;opacity:1;stroke-width:0.5;" x1="263" x2="3036" y1="1903" y2="1903"/>
  <g id="" transform="matrix(1 0 0 1 263 1933)">
   <path d="M9.24805 0.830078C13.5547 0.830078 17.1387-2.74414 17.1387-7.05078C17.1387-11.3574 13.5449-14.9316 9.23828-14.9316C4.94141-14.9316 1.36719-11.3574 1.36719-7.05078C1.36719-2.74414 4.95117 0.830078 9.24805 0.830078ZM9.24805-0.654297C5.70312-0.654297 2.87109-3.49609 2.87109-7.05078C2.87109-10.6055 5.69336-13.4473 9.23828-13.4473C12.793-13.4473 15.6348-10.6055 15.6445-7.05078C15.6543-3.49609 12.8027-0.654297 9.24805-0.654297ZM6.39648-6.31836L8.50586-6.31836L8.50586-4.19922C8.50586-3.75977 8.79883-3.45703 9.22852-3.45703C9.67773-3.45703 9.9707-3.75977 9.9707-4.19922L9.9707-6.31836L12.0996-6.31836C12.5391-6.31836 12.8418-6.61133 12.8418-7.04102C12.8418-7.48047 12.5391-7.7832 12.0996-7.7832L9.9707-7.7832L9.9707-9.89258C9.9707-10.3418 9.67773-10.6445 9.22852-10.6445C8.79883-10.6445 8.50586-10.3418 8.50586-9.89258L8.50586-7.7832L6.39648-7.7832C5.94727-7.7832 5.64453-7.48047 5.64453-7.04102C5.64453-6.61133 5.94727-6.31836 6.39648-6.31836Z"/>
  </g>
  <g id="" transform="matrix(1 0 0 1 281.506 1933)">
   <path d="M11.709 2.91016C17.1582 2.91016 21.6699-1.61133 21.6699-7.05078C21.6699-12.5 17.1484-17.0117 11.6992-17.0117C6.25977-17.0117 1.74805-12.5 1.74805-7.05078C1.74805-1.61133 6.26953 2.91016 11.709 2.91016ZM11.709 1.25C7.09961 1.25 3.41797-2.44141 3.41797-7.05078C3.41797-11.6602 7.08984-15.3516 11.6992-15.3516C16.3086-15.3516 20-11.6602 20.0098-7.05078C20.0195-2.44141 16.3184 1.25 11.709 1.25ZM7.98828-6.23047L10.8789-6.23047L10.8789-3.32031C10.8789-2.83203 11.2109-2.5 11.6895-2.5C12.1777-2.5 12.5195-2.83203 12.5195-3.32031L12.5195-6.23047L15.4297-6.23047C15.918-6.23047 16.25-6.5625 16.25-7.04102C16.25-7.5293 15.918-7.87109 15.4297-7.87109L12.5195-7.87109L12.5195-10.7617C12.5195-11.2695 12.1777-11.6016 11.6895-11.6016C11.2109-11.6016 10.8789-11.2598 10.8789-10.7617L10.8789-7.87109L7.98828-7.87109C7.48047-7.87109 7.14844-7.5293 7.14844-7.04102C7.14844-6.5625 7.49023-6.23047 7.98828-6.23047Z"/>
  </g>
  <g id="" transform="matrix(1 0 0 1 304.924 1933)">
   <path d="M14.9707 5.66406C21.9336 5.66406 27.6953-0.0976562 27.6953-7.05078C27.6953-14.0137 21.9238-19.7754 14.9609-19.7754C8.00781-19.7754 2.25586-14.0137 2.25586-7.05078C2.25586-0.0976562 8.01758 5.66406 14.9707 5.66406ZM14.9707 3.84766C8.93555 3.84766 4.08203-1.01562 4.08203-7.05078C4.08203-13.0957 8.92578-17.9492 14.9609-17.9492C21.0059-17.9492 25.8594-13.0957 25.8691-7.05078C25.8789-1.01562 21.0156 3.84766 14.9707 3.84766ZM10.0586-6.14258L14.0625-6.14258L14.0625-2.12891C14.0625-1.5918 14.4336-1.2207 14.9512-1.2207C15.4883-1.2207 15.8594-1.5918 15.8594-2.12891L15.8594-6.14258L19.8828-6.14258C20.4102-6.14258 20.791-6.51367 20.791-7.03125C20.791-7.56836 20.4199-7.94922 19.8828-7.94922L15.8594-7.94922L15.8594-11.9531C15.8594-12.5098 15.4883-12.8809 14.9512-12.8809C14.4336-12.8809 14.0625-12.5 14.0625-11.9531L14.0625-7.94922L10.0586-7.94922C9.50195-7.94922 9.13086-7.56836 9.13086-7.03125C9.13086-6.51367 9.51172-6.14258 10.0586-6.14258Z"/>
  </g>
  <text style="stroke:none;fill:black;font-family:-apple-system,&quot;SF Pro Display&quot;,&quot;SF Pro Text&quot;,Helvetica,sans-serif;font-weight:bold;" transform="matrix(1 0 0 1 263 1953)">Design Variations</text>
  <text style="stroke:none;fill:black;font-family:-apple-system,&quot;SF Pro Display&quot;,&quot;SF Pro Text&quot;,Helvetica,sans-serif;" transform="matrix(1 0 0 1 263 1971)">Symbols are supported in up to nine weights and three scales.</text>
  <text style="stroke:none;fill:black;font-family:-apple-system,&quot;SF Pro Display&quot;,&quot;SF Pro Text&quot;,Helvetica,sans-serif;" transform="matrix(1 0 0 1 263 1989)">For optimal layout with text and other symbols, vertically align</text>
  <text style="stroke:none;fill:black;font-family:-apple-system,&quot;SF Pro Display&quot;,&quot;SF Pro Text&quot;,Helvetica,sans-serif;" transform="matrix(1 0 0 1 263 2007)">symbols with the adjacent text.</text>
  <line id="" style="fill:none;stroke:#00AEEF;stroke-width:0.5;opacity:1.0;" x1="776" x2="776" y1="1919" y2="1933"/>
  <g id="" transform="matrix(1 0 0 1 776 1933)">
   <path d="M3.31055 0.126953C3.82812 0.126953 4.08203-0.0683594 4.26758-0.605469L5.52734-4.0625L11.2891-4.0625L12.5488-0.605469C12.7344-0.0683594 12.9883 0.126953 13.4961 0.126953C14.0137 0.126953 14.3457-0.185547 14.3457-0.673828C14.3457-0.839844 14.3164-0.986328 14.2383-1.20117L9.6582-13.3887C9.43359-13.9941 9.0332-14.2871 8.4082-14.2871C7.80273-14.2871 7.39258-13.9941 7.17773-13.3984L2.59766-1.19141C2.51953-0.976562 2.49023-0.830078 2.49023-0.664062C2.49023-0.175781 2.80273 0.126953 3.31055 0.126953ZM6.00586-5.53711L8.37891-12.1094L8.42773-12.1094L10.8008-5.53711Z"/>
  </g>
  <line id="" style="fill:none;stroke:#00AEEF;stroke-width:0.5;opacity:1.0;" x1="792.836" x2="792.836" y1="1919" y2="1933"/>
  <text style="stroke:none;fill:black;font-family:-apple-system,&quot;SF Pro Display&quot;,&quot;SF Pro Text&quot;,Helvetica,sans-serif;font-weight:bold;" transform="matrix(1 0 0 1 776 1953)">Margins</text>
  <text style="stroke:none;fill:black;font-family:-apple-system,&quot;SF Pro Display&quot;,&quot;SF Pro Text&quot;,Helvetica,sans-serif;" transform="matrix(1 0 0 1 776 1971)">Leading and trailing margins on the left and right side of each symbol</text>
  <text style="stroke:none;fill:black;font-family:-apple-system,&quot;SF Pro Display&quot;,&quot;SF Pro Text&quot;,Helvetica,sans-serif;" transform="matrix(1 0 0 1 776 1989)">can be adjusted by modifying the x-location of the margin guidelines.</text>
  <text style="stroke:none;fill:black;font-family:-apple-system,&quot;SF Pro Display&quot;,&quot;SF Pro Text&quot;,Helvetica,sans-serif;" transform="matrix(1 0 0 1 776 2007)">Modifications are automatically applied proportionally to all</text>
  <text style="stroke:none;fill:black;font-family:-apple-system,&quot;SF Pro Display&quot;,&quot;SF Pro Text&quot;,Helvetica,sans-serif;" transform="matrix(1 0 0 1 776 2025)">scales and weights.</text>
  <g id="" transform="matrix(1 0 0 1 1289 1933)">
   <path d="M2.8418 1.86523L4.54102 3.57422C5.40039 4.44336 6.38672 4.38477 7.31445 3.35938L17.4902-7.85156C17.7539-7.76367 18.0273-7.7832 18.3398-7.8418L19.4043-8.03711L20.0684-7.36328L20.0293-6.80664C19.9902-6.30859 20.1172-5.92773 20.6055-5.44922L21.3672-4.70703C21.8457-4.22852 22.4609-4.19922 22.9297-4.66797L25.8398-7.58789C26.3086-8.05664 26.2891-8.65234 25.8105-9.13086L25.0391-9.89258C24.5605-10.3711 24.1895-10.5273 23.7109-10.4883L23.1348-10.4395L22.4902-11.0742L22.7344-12.1973C22.8613-12.7637 22.7051-13.2031 22.1191-13.7891L19.9219-15.9766C16.582-19.2969 12.1484-19.2188 9.25781-16.3281C8.83789-15.918 8.80859-15.3418 9.04297-14.9512C9.27734-14.5898 9.73633-14.3555 10.3809-14.5215C11.8457-14.8633 13.3691-14.9219 14.7949-13.9844L14.209-12.5293C14.0137-12.0508 13.9844-11.6504 14.1113-11.2891L3.04688-0.898438C2.06055 0.0195312 1.98242 0.996094 2.8418 1.86523ZM10.752-15.957C13.1836-17.7344 16.4746-17.4316 18.7012-15.2051L21.1328-12.793C21.3672-12.5586 21.4062-12.373 21.3379-12.0312L21.0156-10.5469L22.5195-9.0625L23.5059-9.12109C23.7598-9.13086 23.8379-9.11133 24.0332-8.91602L24.6094-8.33984L22.168-5.89844L21.5918-6.47461C21.3965-6.66992 21.3672-6.74805 21.377-7.01172L21.4453-7.98828L19.9512-9.47266L18.4277-9.21875C18.1055-9.15039 17.959-9.17969 17.7148-9.41406L15.7129-11.416C15.459-11.6504 15.4297-11.8164 15.5859-12.1875L16.4648-14.2773C14.9023-15.7324 12.8711-16.3574 10.8398-15.7617C10.6836-15.7227 10.625-15.8496 10.752-15.957ZM5.27344 2.30469L4.10156 1.14258C3.63281 0.683594 3.74023 0.341797 4.14062-0.0195312L14.9512-10.1953L16.416-8.71094L6.42578 2.27539C6.07422 2.67578 5.74219 2.77344 5.27344 2.30469Z"/>
  </g>
  <text style="stroke:none;fill:black;font-family:-apple-system,&quot;SF Pro Display&quot;,&quot;SF Pro Text&quot;,Helvetica,sans-serif;font-weight:bold;" transform="matrix(1 0 0 1 1289 1953)">Exporting</text>
  <text style="stroke:none;fill:black;font-family:-apple-system,&quot;SF Pro Display&quot;,&quot;SF Pro Text&quot;,Helvetica,sans-serif;" transform="matrix(1 0 0 1 1289 1971)">Symbols should be outlined when exporting to ensure the</text>
  <text style="stroke:none;fill:black;font-family:-apple-system,&quot;SF Pro Display&quot;,&quot;SF Pro Text&quot;,Helvetica,sans-serif;" transform="matrix(1 0 0 1 1289 1989)">design is preserved when submitting to Xcode.</text>
  <text id="template-version" style="stroke:none;fill:black;font-family:-apple-system,&quot;SF Pro Display&quot;,&quot;SF Pro Text&quot;,Helvetica,sans-serif;text-anchor:end;" transform="matrix(1 0 0 1 3036 1933)">Template v.2.0</text>
  <text style="stroke:none;fill:black;font-family:-apple-system,&quot;SF Pro Display&quot;,&quot;SF Pro Text&quot;,Helvetica,sans-serif;text-anchor:end;" transform="matrix(1 0 0 1 3036 1951)">Requires Xcode 12 or greater</text>
  <text style="stroke:none;fill:black;font-family:-apple-system,&quot;SF Pro Display&quot;,&quot;SF Pro Text&quot;,Helvetica,sans-serif;text-anchor:end;" transform="matrix(1 0 0 1 3036 1969)">Generated from character.book.closed</text>
  <text style="stroke:none;fill:black;font-family:-apple-system,&quot;SF Pro Display&quot;,&quot;SF Pro Text&quot;,Helvetica,sans-serif;text-anchor:end;" transform="matrix(1 0 0 1 3036 1987)">Typeset at 100 points</text>
  <text style="stroke:none;fill:black;font-family:-apple-system,&quot;SF Pro Display&quot;,&quot;SF Pro Text&quot;,Helvetica,sans-serif;" transform="matrix(1 0 0 1 263 726)">Small</text>
  <text style="stroke:none;fill:black;font-family:-apple-system,&quot;SF Pro Display&quot;,&quot;SF Pro Text&quot;,Helvetica,sans-serif;" transform="matrix(1 0 0 1 263 1156)">Medium</text>
  <text style="stroke:none;fill:black;font-family:-apple-system,&quot;SF Pro Display&quot;,&quot;SF Pro Text&quot;,Helvetica,sans-serif;" transform="matrix(1 0 0 1 263 1586)">Large</text>
 </g>
 <g id="Guides">
  <g id="H-reference" style="fill:#27AAE1;stroke:none;" transform="matrix(1 0 0 1 339 696)">
   <path d="M0.976562 0L3.66211 0L12.9883-24.4629L45.752-24.4629L55.127 0L57.7637 0L30.6152-70.459L28.125-70.459ZM29.3457-67.1387L29.4434-67.1387L44.873-26.709L13.8672-26.709Z"/>
  </g>
  <line id="Baseline-S" style="fill:none;stroke:#27AAE1;opacity:1;stroke-width:0.5;" x1="263" x2="3036" y1="696" y2="696"/>
  <line id="Capline-S" style="fill:none;stroke:#27AAE1;opacity:1;stroke-width:0.5;" x1="263" x2="3036" y1="625.541" y2="625.541"/>
  <g id="H-reference" style="fill:#27AAE1;stroke:none;" transform="matrix(1 0 0 1 339 1126)">
   <path d="M0.976562 0L3.66211 0L12.9883-24.4629L45.752-24.4629L55.127 0L57.7637 0L30.6152-70.459L28.125-70.459ZM29.3457-67.1387L29.4434-67.1387L44.873-26.709L13.8672-26.709Z"/>
  </g>
  <line id="Baseline-M" style="fill:none;stroke:#27AAE1;opacity:1;stroke-width:0.5;" x1="263" x2="3036" y1="1126" y2="1126"/>
  <line id="Capline-M" style="fill:none;stroke:#27AAE1;opacity:1;stroke-width:0.5;" x1="263" x2="3036" y1="1055.54" y2="1055.54"/>
  <g id="H-reference" style="fill:#27AAE1;stroke:none;" transform="matrix(1 0 0 1 339 1556)">
   <path d="M0.976562 0L3.66211 0L12.9883-24.4629L45.752-24.4629L55.127 0L57.7637 0L30.6152-70.459L28.125-70.459ZM29.3457-67.1387L29.4434-67.1387L44.873-26.709L13.8672-26.709Z"/>
  </g>
  <line id="Baseline-L" style="fill:none;stroke:#27AAE1;opacity:1;stroke-width:0.5;" x1="263" x2="3036" y1="1556" y2="1556"/>
  <line id="Capline-L" style="fill:none;stroke:#27AAE1;opacity:1;stroke-width:0.5;" x1="263" x2="3036" y1="1485.54" y2="1485.54"/>
  <line id="left-margin" style="fill:none;stroke:#00AEEF;stroke-width:0.5;opacity:1.0;" x1="1396.33" x2="1396.33" y1="1030.79" y2="1150.12"/>
  <line id="right-margin" style="fill:none;stroke:#00AEEF;stroke-width:0.5;opacity:1.0;" x1="1503.36" x2="1503.36" y1="1030.79" y2="1150.12"/>
 </g>
 <g id="Symbols">
  <g id="Black-L" transform="matrix(1 0 0 1 2859.55 1556)">
   <path d="M39.8926 35.2539L122.949 35.2539C128.076 35.2539 131.641 31.6895 131.641 26.5625C131.641 21.6309 128.32 19.1895 124.609 16.7969C117.676 12.6465 116.455 0.683594 124.609-5.71289C130.078-9.81445 131.445-12.9395 131.445-19.6289L131.445-81.7383C131.445-96.9727 122.803-105.615 107.617-105.615L39.8926-105.615C24.707-105.615 16.0645-96.9727 16.0645-81.7383L16.0645 11.3281C16.0645 26.5625 24.707 35.2539 39.8926 35.2539ZM36.3281-19.9219L36.3281-79.0039C36.3281-83.252 38.1836-85.4004 42.7246-85.4004L43.5547-85.4004L43.5547-20.8008L43.4082-20.8008C40.918-20.8008 38.4766-20.459 36.3281-19.9219ZM104.785-85.4004C109.326-85.4004 111.23-83.252 111.23-79.0039L111.23-23.1445C111.23-21.6797 110.352-20.8008 108.691-20.8008L54.9316-20.8008L54.9316-85.4004ZM68.1641-30.2246C72.0215-30.2246 74.4629-32.373 75.4395-36.9629L76.5625-40.7715L89.4043-40.7715L90.5273-36.9629C91.5039-32.373 93.9453-30.2246 97.8027-30.2246C102.344-30.2246 105.029-32.8125 105.029-37.1582C105.029-38.3301 104.736-39.9414 104.004-42.1387L95.0684-68.8965C92.9688-75.3906 89.0137-78.418 82.8125-78.418C76.8066-78.418 72.998-75.4395 70.8984-68.8965L61.9141-42.1387C61.2305-39.9414 60.9375-38.3301 60.9375-37.1582C60.9375-32.8125 63.5742-30.2246 68.1641-30.2246ZM79.1016-51.3672L82.7148-65.5273L83.252-65.5273L86.8652-51.3672ZM44.9707 17.9199C37.2559 17.9199 33.5449 12.9883 33.5449 7.17773C33.5449 1.51367 37.5-3.51562 45.166-3.51562L103.418-3.51562C100.146 3.32031 100.049 11.377 103.076 17.9199Z"/>
  </g>
  <g id="Heavy-L" transform="matrix(1 0 0 1 2564.11 1556)">
   <path d="M38.623 34.4727L121.484 34.4727C125.928 34.4727 129.102 31.3477 129.102 26.8555C129.102 22.6562 126.27 20.4102 123.047 18.4082C115.771 14.3555 114.404 2.73438 122.559-4.10156C127.295-7.8125 128.955-10.9863 128.955-17.5293L128.955-82.1289C128.955-96.7285 120.898-104.883 106.348-104.883L38.7207-104.883C24.1211-104.883 16.0645-96.7773 16.0645-82.1289L16.0645 11.8652C16.0645 26.416 24.1699 34.4727 38.623 34.4727ZM104.053-87.3535C109.18-87.3535 111.475-84.8633 111.475-80.0293L111.475-20.5078C111.475-18.3105 110.205-17.041 107.861-17.041L51.2695-17.041L51.2695-87.3535ZM33.5938-15.625L33.5938-80.0293C33.5938-84.8145 35.8398-87.3535 40.8691-87.3535L40.8691-17.041C38.1348-16.9922 35.7422-16.4551 33.5938-15.625ZM65.7715-28.9551C69.1895-28.9551 71.3379-30.8594 72.2656-34.9121L74.1211-40.6738L88.7207-40.6738L90.5762-34.9121C91.5039-30.8594 93.6523-28.9551 97.0703-28.9551C101.123-28.9551 103.516-31.2988 103.516-35.1074C103.516-36.2305 103.223-37.5977 102.588-39.5508L92.041-70.0195C90.1855-75.6348 86.6699-78.3203 81.2988-78.3203C76.0254-78.3203 72.7051-75.6836 70.8496-70.0195L60.2539-39.5508C59.6191-37.5977 59.3262-36.2305 59.3262-35.1562C59.3262-31.2988 61.7188-28.9551 65.7715-28.9551ZM76.5625-50.293L81.1523-66.3574L81.6895-66.3574L86.2793-50.293ZM42.627 19.2383C35.1562 19.2383 31.4941 14.5996 31.4941 8.69141C31.4941 2.92969 35.4492-1.75781 42.8711-1.75781L102.1-1.75781C102.637-1.75781 103.125-1.80664 103.613-1.85547C100.293 5.0293 100.391 12.8906 103.711 19.2383Z"/>
  </g>
  <g id="Bold-L" transform="matrix(1 0 0 1 2268.81 1556)">
   <path d="M37.207 33.6426L119.775 33.6426C123.535 33.6426 126.27 30.9082 126.27 27.1484C126.27 23.7793 123.975 21.7285 121.289 20.2148C113.672 16.2598 112.158 5.0293 120.215-2.29492C124.17-5.61523 126.172-8.83789 126.172-15.1855L126.172-82.5684C126.172-96.4844 118.701-104.053 104.883-104.053L37.4023-104.053C23.5352-104.053 16.0645-96.5332 16.0645-82.5684L16.0645 12.4512C16.0645 26.1719 23.5352 33.6426 37.207 33.6426ZM103.223-89.5996C108.984-89.5996 111.719-86.6699 111.719-81.1523L111.719-17.5293C111.719-14.502 110.01-12.8418 106.885-12.8418L47.168-12.8418L47.168-89.5996ZM30.5176-10.8398L30.5176-81.1523C30.5176-86.2793 32.9102-89.209 37.8906-89.5508L37.8906-12.793C35.0586-12.5977 32.6172-11.9141 30.5176-10.8398ZM63.0371-27.5879C65.918-27.5879 67.7246-29.1016 68.6035-32.5684L71.3379-40.625L87.9395-40.625L90.6738-32.5684C91.5527-29.1016 93.4082-27.5879 96.2891-27.5879C99.6582-27.5879 101.758-29.5898 101.758-32.8125C101.758-33.7891 101.514-34.9121 100.977-36.5723L88.5254-71.3867C86.9629-75.9766 84.0332-78.1738 79.541-78.1738C75.1465-78.1738 72.3633-75.9766 70.8008-71.3867L58.3496-36.5723C57.7637-34.9121 57.5684-33.7891 57.5684-32.8125C57.5684-29.5898 59.6191-27.5879 63.0371-27.5879ZM73.6328-49.0234L79.3945-67.334L79.9316-67.334L85.6445-49.0234ZM39.9902 20.6543C32.8125 20.6543 29.1504 16.4062 29.1504 10.3516C29.1504 4.54102 33.1543 0.146484 40.332 0.146484L101.758 0.146484C102.49 0.146484 103.174 0.0976562 103.809-0.0488281C100.439 6.88477 100.781 14.5996 104.443 20.6543Z"/>
  </g>
  <g id="Semibold-L" transform="matrix(1 0 0 1 1973.08 1556)">
   <path d="M36.2793 33.0566L118.604 33.0566C121.875 33.0566 124.316 30.6641 124.316 27.3926C124.316 24.5605 122.412 22.6562 120.068 21.4844C112.207 17.5293 110.596 6.64062 118.604-1.02539C122.021-4.05273 124.268-7.32422 124.268-13.5742L124.268-82.9102C124.268-96.3379 117.188-103.467 103.857-103.467L36.4746-103.467C23.0957-103.467 16.0645-96.3867 16.0645-82.9102L16.0645 12.8906C16.0645 26.0254 23.1445 33.0566 36.2793 33.0566ZM102.637-91.1133C108.838-91.1133 111.914-87.8906 111.914-81.9336L111.914-15.4785C111.914-11.9141 109.912-9.91211 106.25-9.91211L44.3848-9.91211L44.3848-91.1133ZM28.418-7.51953L28.418-81.9336C28.418-87.3047 30.8594-90.4297 35.8398-91.0156L35.8398-9.86328C32.9102-9.57031 30.5176-8.78906 28.418-7.51953ZM61.1328-26.6113C63.623-26.6113 65.2344-27.8809 66.0645-30.957L69.3848-40.6738L87.4023-40.6738L90.7715-30.957C91.6016-27.8809 93.2129-26.6113 95.7031-26.6113C98.6328-26.6113 100.488-28.418 100.488-31.1523C100.488-32.0801 100.293-33.0566 99.8047-34.4727L86.0352-72.3633C84.7168-76.1719 82.1289-78.0762 78.3203-78.0762C74.5605-78.0762 72.1191-76.2207 70.8008-72.3633L56.9824-34.4727C56.4941-33.0566 56.2988-32.0801 56.2988-31.2012C56.2988-28.3691 58.1543-26.6113 61.1328-26.6113ZM71.582-48.1445L78.125-68.0176L78.6621-68.0176L85.2051-48.1445ZM38.1836 21.6797C31.2012 21.6797 27.5391 17.627 27.5391 11.5234C27.5391 5.66406 31.5918 1.46484 38.5742 1.46484L101.514 1.46484C102.393 1.46484 103.223 1.41602 104.004 1.2207C100.586 8.20312 101.074 15.8203 104.932 21.6797Z"/>
  </g>
  <g id="Medium-L" transform="matrix(1 0 0 1 1677.1 1556)">
   <path d="M35.5469 32.666L117.773 32.666C120.654 32.666 122.852 30.4688 122.852 27.5391C122.852 25.1465 121.191 23.3398 119.189 22.4121C111.084 18.5059 109.424 7.8125 117.383-0.0976562C120.361-2.92969 122.803-6.15234 122.803-12.3535L122.803-83.1055C122.803-96.1914 116.064-103.027 103.076-103.027L35.791-103.027C22.8027-103.027 16.0645-96.2402 16.0645-83.1055L16.0645 13.2324C16.0645 25.9277 22.8027 32.666 35.5469 32.666ZM102.197-92.2852C108.74-92.2852 112.061-88.8672 112.061-82.5195L112.061-13.916C112.061-9.91211 109.814-7.71484 105.762-7.71484L42.2363-7.71484L42.2363-92.2852ZM26.8066-4.98047L26.8066-82.5195C26.8066-88.0371 29.2969-91.3574 34.2773-92.0898L34.2773-7.61719C31.3477-7.27539 28.9062-6.39648 26.8066-4.98047ZM59.668-25.8789C61.8164-25.8789 63.2812-26.9531 64.0625-29.6875L67.8711-40.6738L87.0117-40.6738L90.8203-29.6875C91.6504-27.002 93.0664-25.8789 95.2637-25.8789C97.8516-25.8789 99.5605-27.4902 99.5605-29.8828C99.5605-30.7617 99.3652-31.5918 98.9258-32.8613L84.082-73.0957C82.959-76.3672 80.7129-77.9785 77.3926-77.9785C74.1211-77.9785 71.9727-76.416 70.8008-73.0957L55.957-32.8613C55.5176-31.5918 55.3711-30.7617 55.3711-29.9316C55.3711-27.4414 56.9824-25.8789 59.668-25.8789ZM70.0195-47.5098L77.1973-68.6035L77.7344-68.6035L84.9121-47.5098ZM36.8164 22.4121C29.9805 22.4121 26.3184 18.6035 26.3184 12.4023C26.3184 6.49414 30.4199 2.49023 37.207 2.49023L101.318 2.49023C102.344 2.49023 103.223 2.39258 104.102 2.19727C100.635 9.17969 101.27 16.6992 105.322 22.4121Z"/>
  </g>
  <g id="Regular-L" transform="matrix(1 0 0 1 1381.36 1556)">
   <path d="M34.5703 32.0801L116.602 32.0801C118.994 32.0801 120.898 30.1758 120.898 27.7344C120.898 25.9277 119.629 24.2676 117.969 23.6328C109.668 19.8242 107.861 9.375 115.82 1.12305C118.262-1.36719 120.898-4.6875 120.898-10.791L120.898-83.4473C120.898-96.0449 114.6-102.441 102.1-102.441L34.8633-102.441C22.3633-102.441 16.0645-96.0938 16.0645-83.4473L16.0645 13.623C16.0645 25.7812 22.4121 32.0801 34.5703 32.0801ZM101.611-93.7988C108.643-93.7988 112.256-90.0879 112.256-83.252L112.256-11.9141C112.256-7.32422 109.717-4.83398 105.078-4.83398L39.4531-4.83398L39.4531-93.7988ZM24.707-1.70898L24.707-83.252C24.707-89.0137 27.2949-92.5293 32.2754-93.5059L32.2754-4.63867C29.248-4.24805 26.8066-3.27148 24.707-1.70898ZM57.7148-24.9512C59.4727-24.9512 60.6445-25.7324 61.4258-28.0273L65.8691-40.7227L86.4746-40.7227L90.918-28.0273C91.6992-25.7812 92.8711-24.9512 94.6777-24.9512C96.8262-24.9512 98.2422-26.3184 98.2422-28.2715C98.2422-29.0039 98.0957-29.6875 97.7539-30.7129L81.543-74.1211C80.6152-76.6602 78.7598-77.9297 76.123-77.9297C73.5352-77.9297 71.7773-76.6602 70.8008-74.1211L54.6387-30.7129C54.248-29.6875 54.1016-29.0039 54.1016-28.2715C54.1016-26.2695 55.5176-24.9512 57.7148-24.9512ZM67.9199-46.6309L75.9277-69.3359L76.416-69.3359L84.4727-46.6309ZM35.0098 23.4375C28.3691 23.4375 24.707 19.8242 24.707 13.5254C24.707 7.56836 28.8574 3.80859 35.4492 3.80859L101.025 3.80859C102.246 3.80859 103.271 3.66211 104.248 3.41797C100.781 10.4492 101.514 17.8711 105.811 23.4375Z"/>
  </g>
  <g id="Light-L" transform="matrix(1 0 0 1 1085.43 1556)">
   <path d="M33.3984 31.7871L116.064 31.7871C117.969 31.7871 119.336 30.3711 119.336 28.4668C119.336 27.0996 118.457 25.8301 117.236 25.3418C108.398 20.6055 106.396 9.96094 114.551 1.17188C117.041-1.51367 119.336-5.07812 119.336-10.8887L119.336-84.082C119.336-95.9473 113.281-102.051 101.514-102.051L33.9355-102.051C22.1191-102.051 16.0645-95.9961 16.0645-84.082L16.0645 14.7461C16.0645 25.7812 22.168 31.7871 33.3984 31.7871ZM101.172-95.459C108.789-95.459 112.744-91.4551 112.744-83.9355L112.744-11.6699C112.744-5.51758 109.473-2.29492 103.32-2.29492L36.084-2.29492L36.084-95.459ZM22.7051 1.5625L22.7051-83.9355C22.7051-90.0879 25.293-93.8477 30.4199-95.0684L30.4199-2.05078C27.1973-1.5625 24.7559-0.341797 22.7051 1.5625ZM55.6152-23.9258C57.0801-23.9258 58.0078-24.5605 58.6426-26.4648L63.8184-40.7227L85.9375-40.7227L91.1133-26.4648C91.748-24.6094 92.6758-23.9258 94.2383-23.9258C95.8984-23.9258 97.1191-25.0488 97.1191-26.6113C97.1191-27.2461 96.9727-27.7344 96.6797-28.6133L79.1504-75.1953C78.418-77.2461 76.9531-78.2227 74.8535-78.2227C72.8027-78.2227 71.3379-77.2461 70.6055-75.1953L53.0762-28.6133C52.7832-27.7344 52.6367-27.2461 52.6367-26.6602C52.6367-25 53.8086-23.9258 55.6152-23.9258ZM65.5273-45.7031L74.6582-70.8008L75.0977-70.8008L84.2285-45.7031ZM33.7891 25.1465C26.6602 25.1465 22.7051 21.2891 22.7051 14.5996C22.7051 8.25195 27.002 4.29688 34.0332 4.29688L100.83 4.29688C102.539 4.29688 104.004 4.10156 105.371 3.71094C101.221 11.4258 102.393 19.5312 107.861 25.1465Z"/>
  </g>
  <g id="Thin-L" transform="matrix(1 0 0 1 789.747 1556)">
   <path d="M31.8848 31.3477L115.381 31.3477C116.553 31.3477 117.285 30.6152 117.285 29.3945C117.285 28.6621 116.846 27.9297 116.211 27.5879C106.738 21.7285 104.492 10.7422 112.842 1.2207C115.43-1.70898 117.285-5.56641 117.285-11.0352L117.285-84.9609C117.285-95.8496 111.572-101.562 100.732-101.562L32.666-101.562C21.7773-101.562 16.0645-95.8496 16.0645-84.9609L16.0645 16.2109C16.0645 25.7812 21.875 31.3477 31.8848 31.3477ZM32.8613-97.6562L100.537-97.6562C108.984-97.6562 113.379-93.2617 113.379-84.8145L113.379-11.3281C113.379-3.17383 109.131 1.07422 100.977 1.07422L31.6895 1.07422L31.6895-97.6074C32.0801-97.6562 32.4707-97.6562 32.8613-97.6562ZM19.9707 5.95703L19.9707-84.8145C19.9707-91.4551 22.7051-95.6055 27.9785-97.0703L27.9785 1.41602C24.4629 2.05078 22.0215 3.56445 19.9707 5.95703ZM52.7344-22.6562C53.7598-22.6562 54.248-23.0469 54.7363-24.3652L60.8887-40.7715L85.1562-40.7715L91.3086-24.3652C91.748-23.0957 92.2852-22.6562 93.457-22.6562C94.4824-22.6562 95.3125-23.3887 95.3125-24.3652C95.3125-24.8047 95.2637-25.0488 95.0684-25.6348L75.6836-76.6113C75.1953-77.9297 74.3164-78.5645 73.0469-78.5645C71.7285-78.5645 70.8496-77.9297 70.3613-76.6113L50.9766-25.6348C50.7812-25.0488 50.6836-24.8047 50.6836-24.4629C50.6836-23.3398 51.4648-22.6562 52.7344-22.6562ZM62.207-44.3848L72.9004-72.8516L73.1445-72.8516L83.8379-44.3848ZM32.1289 27.4414C24.4629 27.4414 19.9707 23.2422 19.9707 16.0645C19.9707 9.13086 24.5117 4.98047 32.1777 4.98047L100.586 4.98047C102.979 4.98047 104.98 4.6875 106.885 4.10156C101.807 12.6465 103.516 21.6797 110.547 27.4414Z"/>
  </g>
  <g id="Ultralight-L" transform="matrix(1 0 0 1 493.549 1556)">
   <path d="M31.1523 31.1523L115.039 31.1523C115.82 31.1523 116.26 30.7129 116.26 29.8828C116.26 29.4434 116.016 29.0039 115.674 28.7598C105.908 22.2656 103.467 11.1816 112.012 1.26953C114.6-1.75781 116.26-5.81055 116.26-11.084L116.26-85.4492C116.26-95.8008 110.693-101.318 100.293-101.318L31.9824-101.318C21.6309-101.318 16.0645-95.8008 16.0645-85.4492L16.0645 16.9434C16.0645 25.7812 21.6797 31.1523 31.1523 31.1523ZM32.1289-98.7793L100.195-98.7793C109.082-98.7793 113.672-94.1895 113.672-85.2539L113.672-11.1328C113.672-1.95312 108.936 2.7832 99.7559 2.7832L31.0059 2.7832C30.4688 2.7832 29.9805 2.83203 29.4434 2.83203L29.4434-98.6328C30.2734-98.7305 31.2012-98.7793 32.1289-98.7793ZM18.6035 8.20312L18.6035-85.2539C18.6035-92.1387 21.3867-96.4844 26.709-98.0469L26.709 3.17383C23.0957 3.90625 20.6543 5.56641 18.6035 8.20312ZM51.2207-22.0215C51.9531-22.0215 52.2461-22.2656 52.5879-23.2422L59.2773-40.8691L84.7168-40.8691L91.4062-23.2422C91.748-22.3633 92.041-22.0215 92.9688-22.0215C93.7012-22.0215 94.3359-22.5586 94.3359-23.1934C94.3359-23.5352 94.2383-23.6328 94.0918-24.0234L73.7793-77.3438C73.4375-78.3203 72.9004-78.6621 72.0703-78.6621C71.1426-78.6621 70.5566-78.3203 70.2148-77.3438L49.9023-24.0234C49.7559-23.6328 49.707-23.5352 49.707-23.291C49.707-22.4609 50.2441-22.0215 51.2207-22.0215ZM60.4004-43.7012L71.9238-73.9258L72.1191-73.9258L83.5938-43.7012ZM31.25 28.5645C23.291 28.5645 18.6035 24.2188 18.6035 16.7969C18.6035 9.57031 23.2422 5.37109 31.2012 5.37109L100.439 5.37109C103.174 5.37109 105.469 5.0293 107.617 4.29688C102.1 13.2812 104.102 22.7539 111.963 28.5645Z"/>
  </g>
  <g id="Black-M" transform="matrix(1 0 0 1 2874.88 1126)">
   <path d="M31.9824 20.2148L97.0215 20.2148C101.562 20.2148 104.59 17.1875 104.59 12.6465C104.59 8.10547 101.562 6.20117 98.291 3.85742C93.0664 0.0488281 92.1875-9.86328 98.6816-14.502C103.955-18.2617 104.395-20.8008 104.395-26.0254L104.395-71.0938C104.395-83.3496 97.1191-90.625 84.8633-90.625L31.9824-90.625C19.7266-90.625 12.4512-83.3496 12.4512-71.0938L12.4512 0.683594C12.4512 12.9395 19.7266 20.2148 31.9824 20.2148ZM30.7617-27.3438L30.7617-68.1641C30.7617-70.9961 31.8359-72.3145 34.9121-72.3145L36.3281-72.3145L36.3281-27.7832L35.4004-27.7832C33.8379-27.7832 32.2266-27.5879 30.7617-27.3438ZM81.9336-72.3145C85.0098-72.3145 86.1328-70.9961 86.1328-68.1641L86.1328-29.2969C86.1328-28.3203 85.5469-27.7832 84.4727-27.7832L45.752-27.7832L45.752-72.3145ZM55.0781-32.4707C58.6426-32.4707 60.791-34.5215 61.5234-38.5742L61.6699-39.502L70.0195-39.502L70.166-38.5742C70.8984-34.5215 73.0469-32.4707 76.6113-32.4707C80.7129-32.4707 83.0566-34.7656 83.0566-38.7207C83.0566-39.6973 82.8125-41.1621 82.1777-43.1641L76.8555-60.2051C74.9512-66.2598 71.3867-69.0918 65.6738-69.0918C60.1562-69.0918 56.7871-66.3086 54.834-60.2051L49.5117-43.1641C48.877-41.1621 48.6328-39.6973 48.6328-38.7207C48.6328-34.7656 50.9766-32.4707 55.0781-32.4707ZM63.7207-48.7793L65.625-58.2031L66.0645-58.2031L67.9688-48.7793ZM37.3535 5.12695C30.8105 5.12695 27.7344 0.78125 27.7344-3.75977C27.7344-8.34961 30.8105-12.6953 37.3047-12.6953L80.4688-12.6953C77.6367-7.12891 77.5391-0.341797 80.0781 5.12695Z"/>
  </g>
  <g id="Heavy-M" transform="matrix(1 0 0 1 2579.34 1126)">
   <path d="M30.9082 19.4824L95.5566 19.4824C99.5117 19.4824 102.246 16.748 102.246 12.793C102.246 8.93555 99.6582 7.08008 96.7773 5.17578C91.3086 1.66016 90.3809-7.76367 96.7773-12.7441C101.221-16.0645 102.1-18.5547 102.1-23.7305L102.1-71.3379C102.1-83.1055 95.3125-89.8926 83.5938-89.8926L30.957-89.8926C19.1895-89.8926 12.4512-83.1055 12.4512-71.3379L12.4512 0.976562C12.4512 12.7441 19.1895 19.4824 30.9082 19.4824ZM28.2715-23.5352L28.2715-69.0918C28.2715-72.4121 29.7363-74.0723 33.252-74.0723L33.9355-74.0723L33.9355-24.3164L33.7402-24.3164C31.7383-24.3164 29.9316-24.0234 28.2715-23.5352ZM81.25-74.0723C84.8145-74.0723 86.2793-72.4121 86.2793-69.0918L86.2793-26.4648C86.2793-25.0977 85.4492-24.3164 83.9844-24.3164L42.627-24.3164L42.627-74.0723ZM52.9785-31.3965C56.0547-31.3965 57.959-33.1055 58.6914-36.7188L59.5215-39.4531L69.3359-39.4531L70.166-36.7188C70.8984-33.1055 72.8027-31.3965 75.9277-31.3965C79.4922-31.3965 81.5918-33.3984 81.5918-36.8652C81.5918-37.793 81.3477-39.0625 80.8105-40.7715L74.0234-61.2305C72.3633-66.4062 69.2383-68.8477 64.3066-68.8477C59.5215-68.8477 56.543-66.4551 54.8828-61.2305L48.0469-40.7715C47.5098-39.0625 47.2656-37.793 47.2656-36.8652C47.2656-33.3984 49.3652-31.3965 52.9785-31.3965ZM61.4258-47.8027L64.209-58.7891L64.6484-58.7891L67.4316-47.8027ZM35.1074 6.10352C28.9551 6.10352 25.9766 2.14844 25.9766-2.44141C25.9766-6.93359 29.0527-10.9375 35.2051-10.9375L79.4434-10.9375C79.7363-10.9375 80.0781-10.9375 80.4199-10.9863C77.6855-5.51758 77.6855 0.927734 80.2734 6.10352Z"/>
  </g>
  <g id="Bold-M" transform="matrix(1 0 0 1 2283.95 1126)">
   <path d="M29.7363 18.6523L93.8477 18.6523C97.2168 18.6523 99.6094 16.2598 99.6094 12.9395C99.6094 9.81445 97.4609 8.05664 95.0684 6.64062C89.4043 3.51562 88.3301-5.41992 94.5801-10.791C98.1445-13.623 99.5117-16.0645 99.5117-21.0938L99.5117-71.6309C99.5117-82.8613 93.3105-89.0625 82.1777-89.0625L29.7852-89.0625C18.6035-89.0625 12.4512-82.8613 12.4512-71.6309L12.4512 1.36719C12.4512 12.5 18.6035 18.6523 29.7363 18.6523ZM80.4688-75.9766C84.5703-75.9766 86.4258-73.9746 86.4258-70.1172L86.4258-23.291C86.4258-21.4844 85.3516-20.459 83.4473-20.459L39.1113-20.459L39.1113-75.9766ZM25.5371-19.2383L25.5371-70.1172C25.5371-73.877 27.2949-75.9277 31.2012-75.9766L31.2012-20.459C29.0527-20.3613 27.1973-19.9707 25.5371-19.2383ZM50.5371-30.1758C53.125-30.1758 54.7363-31.543 55.4199-34.6191L57.0312-39.4531L68.6523-39.4531L70.2148-34.6191C70.9473-31.543 72.5586-30.1758 75.1465-30.1758C78.125-30.1758 79.9316-31.9336 79.9316-34.7656C79.9316-35.5957 79.7363-36.6211 79.248-38.0859L70.752-62.4023C69.3848-66.6016 66.748-68.5547 62.7441-68.5547C58.7891-68.5547 56.2988-66.6016 54.8828-62.4023L46.3867-38.0859C45.8984-36.6211 45.7031-35.5957 45.7031-34.7656C45.7031-31.8848 47.5098-30.1758 50.5371-30.1758ZM58.8867-46.6797L62.5977-59.4727L63.0371-59.4727L66.7969-46.6797ZM32.6172 7.17773C26.8555 7.17773 24.0234 3.66211 24.0234-0.927734C24.0234-5.37109 27.0996-8.98438 32.8125-8.98438L79.1016-8.98438C79.4922-8.98438 79.9316-8.98438 80.3223-9.08203C77.7344-3.71094 77.8809 2.34375 80.4688 7.17773Z"/>
  </g>
  <g id="Semibold-M" transform="matrix(1 0 0 1 1988.16 1126)">
   <path d="M28.9062 18.1152L92.6758 18.1152C95.6055 18.1152 97.7539 15.9668 97.7539 13.0371C97.7539 10.4004 95.9961 8.74023 93.8965 7.66602C88.0371 4.78516 86.9141-3.80859 93.1152-9.42383C96.0449-11.9141 97.7051-14.3555 97.7051-19.3359L97.7051-71.8262C97.7051-82.666 91.9434-88.5254 81.1523-88.5254L29.0039-88.5254C18.2129-88.5254 12.4512-82.7148 12.4512-71.8262L12.4512 1.61133C12.4512 12.3047 18.2129 18.1152 28.9062 18.1152ZM79.9805-77.3438C84.375-77.3438 86.5234-75.0488 86.5234-70.8496L86.5234-21.1426C86.5234-18.9941 85.3027-17.7734 83.1055-17.7734L36.6699-17.7734L36.6699-77.3438ZM23.6328-16.3086L23.6328-70.8496C23.6328-74.8047 25.4883-77.0508 29.3457-77.2949L29.3457-17.7734C27.1484-17.627 25.293-17.1387 23.6328-16.3086ZM48.877-29.2969C51.0742-29.2969 52.4902-30.4688 53.1738-33.1055L55.2734-39.4531L68.1641-39.4531L70.2637-33.1055C70.9473-30.4688 72.3633-29.2969 74.6094-29.2969C77.1973-29.2969 78.8086-30.8594 78.8086-33.3008C78.8086-34.082 78.6133-34.9609 78.1738-36.2305L68.5059-63.2812C67.334-66.6992 65.0391-68.4082 61.6211-68.4082C58.3008-68.4082 56.1035-66.748 54.9316-63.2812L45.2637-36.2305C44.8242-34.9609 44.6289-34.082 44.6289-33.3496C44.6289-30.8594 46.2402-29.2969 48.877-29.2969ZM57.0801-45.8984L61.4746-59.9609L61.9141-59.9609L66.3574-45.8984ZM30.8594 7.95898C25.4395 7.95898 22.6562 4.73633 22.6562 0.0976562C22.6562-4.29688 25.7812-7.61719 31.1523-7.61719L78.8574-7.61719C79.3457-7.61719 79.834-7.66602 80.2734-7.76367C77.7832-2.49023 77.9785 3.32031 80.6152 7.95898Z"/>
  </g>
  <g id="Medium-M" transform="matrix(1 0 0 1 1692.14 1126)">
   <path d="M28.2715 17.6758L91.7969 17.6758C94.3848 17.6758 96.3867 15.6738 96.3867 13.0859C96.3867 10.8887 94.873 9.27734 93.0176 8.39844C87.0117 5.71289 85.8398-2.58789 91.9434-8.39844C94.4336-10.5957 96.3379-13.0371 96.3379-17.9688L96.3379-72.0215C96.3379-82.5684 90.918-88.0859 80.4199-88.0859L28.3691-88.0859C17.9199-88.0859 12.4512-82.6172 12.4512-72.0215L12.4512 1.75781C12.4512 12.207 17.9199 17.6758 28.2715 17.6758ZM79.541-78.3691C84.2773-78.3691 86.6211-75.8789 86.6211-71.3867L86.6211-19.4824C86.6211-17.0898 85.2539-15.7715 82.8125-15.7715L34.8633-15.7715L34.8633-78.3691ZM22.168-14.0625L22.168-71.3867C22.168-75.4395 24.0723-77.832 27.9297-78.2715L27.9297-15.7227C25.7324-15.5273 23.8281-14.9414 22.168-14.0625ZM47.5586-28.6621C49.4629-28.6621 50.7324-29.6387 51.416-31.9824L53.9551-39.4531L67.7734-39.4531L70.3125-31.9824C70.9961-29.6387 72.2656-28.6621 74.1699-28.6621C76.4648-28.6621 77.8809-30.0781 77.8809-32.2266C77.8809-32.9102 77.7344-33.6914 77.3438-34.8145L66.748-63.916C65.7227-66.8457 63.7207-68.2617 60.791-68.2617C57.9102-68.2617 56.0059-66.8457 54.9805-63.916L44.3848-34.8145C43.9941-33.6914 43.8477-32.9102 43.8477-32.2266C43.8477-30.0781 45.2637-28.6621 47.5586-28.6621ZM55.7129-45.3125L60.6445-60.3516L61.084-60.3516L66.0156-45.3125ZM29.5898 8.49609C24.3652 8.49609 21.6309 5.51758 21.6309 0.927734C21.6309-3.51562 24.7559-6.5918 29.9316-6.5918L78.6621-6.5918C79.1992-6.5918 79.7363-6.64062 80.2246-6.73828C77.7832-1.5625 78.0762 4.05273 80.7129 8.49609Z"/>
  </g>
  <g id="Regular-M" transform="matrix(1 0 0 1 1396.33 1126)">
   <path d="M27.4414 17.0898L90.6738 17.0898C92.8223 17.0898 94.5801 15.3809 94.5801 13.1836C94.5801 11.4746 93.4082 9.96094 91.8457 9.42383C85.6934 6.98242 84.4238-0.976562 90.4785-7.08008C92.334-8.93555 94.5801-11.3281 94.5801-16.2109L94.5801-72.2168C94.5801-82.373 89.5508-87.5488 79.4434-87.5488L27.5879-87.5488C17.4805-87.5488 12.4512-82.4219 12.4512-72.2168L12.4512 2.00195C12.4512 12.0605 17.5293 17.0898 27.4414 17.0898ZM79.0527-79.6875C84.1309-79.6875 86.7188-76.9531 86.7188-72.0703L86.7188-17.2852C86.7188-14.6484 85.2051-13.1348 82.4707-13.1348L32.4707-13.1348L32.4707-79.6875ZM20.3125-11.1328L20.3125-72.0703C20.3125-76.3184 22.2656-78.9062 26.0742-79.541L26.0742-13.0371C23.8281-12.793 21.9727-12.1582 20.3125-11.1328ZM45.8984-27.832C47.4121-27.832 48.4863-28.5645 49.1211-30.5176L52.1973-39.502L67.2852-39.502L70.3613-30.5176C71.0449-28.5645 72.1191-27.832 73.6328-27.832C75.4883-27.832 76.7578-29.0039 76.7578-30.7617C76.7578-31.3965 76.6113-31.9824 76.2695-32.9102L64.4531-64.7949C63.623-66.9922 62.0117-68.1152 59.7168-68.1152C57.4219-68.1152 55.8594-66.9922 55.0293-64.7949L43.2129-32.9102C42.9199-31.9824 42.7734-31.3965 42.7734-30.7617C42.7734-29.0039 43.9941-27.832 45.8984-27.832ZM53.9062-44.5801L59.5215-60.8887L59.9609-60.8887L65.5762-44.5801ZM27.8809 9.22852C22.9492 9.22852 20.3125 6.5918 20.3125 1.95312C20.3125-2.44141 23.4375-5.27344 28.3203-5.27344L78.418-5.27344C79.0527-5.27344 79.6387-5.32227 80.127-5.41992C77.832-0.341797 78.2227 5.0293 80.8105 9.22852Z"/>
  </g>
  <g id="Light-M" transform="matrix(1 0 0 1 1100.33 1126)">
   <path d="M26.416 16.8457L90.1855 16.8457C91.8945 16.8457 93.1641 15.5273 93.1641 13.8184C93.1641 12.5488 92.334 11.377 91.1621 10.9375C84.5703 7.71484 83.1055-0.439453 89.3555-7.03125C91.2598-9.0332 93.1641-11.6699 93.1641-16.3086L93.1641-72.8027C93.1641-82.3242 88.3789-87.207 78.9062-87.207L26.709-87.207C17.2852-87.207 12.4512-82.373 12.4512-72.8027L12.4512 3.02734C12.4512 12.0605 17.2852 16.8457 26.416 16.8457ZM78.6133-81.1523C84.2285-81.1523 87.1582-78.1738 87.1582-72.6562L87.1582-17.0898C87.1582-13.0371 84.9609-10.8398 80.8594-10.8398L29.4922-10.8398L29.4922-81.1523ZM18.5059-8.20312L18.5059-72.6562C18.5059-77.2461 20.5078-80.0781 24.4141-80.9082L24.4141-10.6934C22.0215-10.3516 20.1172-9.47266 18.5059-8.20312ZM44.043-26.9043C45.3125-26.9043 46.1914-27.4902 46.7285-29.1504L50.3906-39.4531L66.8457-39.4531L70.5566-29.1504C71.0938-27.5391 71.9238-26.9043 73.2422-26.9043C74.7559-26.9043 75.7812-27.8809 75.7812-29.2969C75.7812-29.834 75.6836-30.3223 75.4395-31.0547L62.4512-65.7227C61.7676-67.5293 60.4492-68.4082 58.5938-68.4082C56.7871-68.4082 55.4688-67.5293 54.834-65.7227L41.8457-31.0547C41.6016-30.3223 41.4551-29.834 41.4551-29.2969C41.4551-27.8809 42.4805-26.9043 44.043-26.9043ZM51.8555-43.75L58.4473-62.1582L58.8379-62.1582L65.3809-43.75ZM26.7578 10.791C21.4355 10.791 18.5059 7.91016 18.5059 2.92969C18.5059-1.80664 21.7285-4.83398 27.002-4.83398L78.2227-4.83398C79.3457-4.83398 80.2734-4.93164 81.1523-5.17578C78.2227 0.488281 78.9551 6.44531 82.666 10.791Z"/>
  </g>
  <g id="Thin-M" transform="matrix(1 0 0 1 804.518 1126)">
   <path d="M25.0488 16.4551L89.5996 16.4551C90.625 16.4551 91.3574 15.7227 91.3574 14.6484C91.3574 13.916 90.918 13.2812 90.2832 12.9883C83.0566 8.64258 81.3965 0.244141 87.8418-6.98242C89.7949-9.17969 91.3574-12.1094 91.3574-16.4551L91.3574-73.584C91.3574-82.2266 86.8164-86.7676 78.2227-86.7676L25.5859-86.7676C16.9434-86.7676 12.4512-82.2266 12.4512-73.584L12.4512 4.29688C12.4512 12.0605 16.9922 16.4551 25.0488 16.4551ZM25.7324-83.1543L78.0273-83.1543C84.4238-83.1543 87.7441-79.7852 87.7441-73.4863L87.7441-16.748C87.7441-10.8887 84.6191-7.8125 78.7598-7.8125L25.5371-7.8125L25.5371-83.1543C25.7324-83.1543 25.7324-83.1543 25.7324-83.1543ZM16.0645-4.24805L16.0645-73.4863C16.0645-78.5156 18.1641-81.6406 22.2168-82.7148L22.2168-7.56836C19.5801-7.12891 17.6758-6.00586 16.0645-4.24805ZM41.5039-25.7324C42.3828-25.7324 42.8711-26.123 43.2617-27.2461L47.8516-39.502L66.1621-39.502L70.7031-27.2461C71.0938-26.1719 71.582-25.7324 72.6074-25.7324C73.5352-25.7324 74.2676-26.416 74.2676-27.2949C74.2676-27.6855 74.2188-27.9297 74.0234-28.418L59.4238-66.9922C58.9844-68.1641 58.2031-68.75 57.0312-68.75C55.8105-68.75 54.9805-68.1641 54.5898-66.9922L39.9902-28.418C39.7949-27.9297 39.6973-27.6855 39.6973-27.3438C39.6973-26.3672 40.3809-25.7324 41.5039-25.7324ZM48.9746-42.627L56.8848-63.916L57.1289-63.916L65.0391-42.627ZM25.2441 12.8418C19.4336 12.8418 16.0645 9.66797 16.0645 4.19922C16.0645-1.02539 19.5312-4.19922 25.3418-4.19922L78.0273-4.19922C79.6875-4.19922 81.1523-4.39453 82.5195-4.83398C78.7598 1.61133 79.9805 8.39844 85.1074 12.8418Z"/>
  </g>
  <g id="Ultralight-M" transform="matrix(1 0 0 1 508.295 1126)">
   <path d="M24.3652 16.2598L89.2578 16.2598C89.9902 16.2598 90.3809 15.8691 90.3809 15.0879C90.3809 14.6484 90.1855 14.2578 89.8438 14.0137C82.3242 9.13086 80.5176 0.585938 87.0605-6.98242C89.0625-9.27734 90.3809-12.3535 90.3809-16.5039L90.3809-73.9746C90.3809-82.1777 86.0352-86.5234 77.8809-86.5234L25-86.5234C16.7969-86.5234 12.4512-82.1777 12.4512-73.9746L12.4512 4.98047C12.4512 12.0605 16.8457 16.2598 24.3652 16.2598ZM25.0977-84.1309L77.7344-84.1309C84.5215-84.1309 87.9883-80.6152 87.9883-73.877L87.9883-16.6016C87.9883-9.81445 84.4727-6.29883 77.6855-6.29883L24.3652-6.29883C24.0723-6.29883 23.7793-6.25 23.4863-6.25L23.4863-84.082C24.0234-84.1309 24.5605-84.1309 25.0977-84.1309ZM14.8438-2.24609L14.8438-73.877C14.8438-79.1504 16.9434-82.4219 21.0938-83.6426L21.0938-6.00586C18.3105-5.46875 16.4062-4.19922 14.8438-2.24609ZM40.1367-25.1953C40.8203-25.1953 41.1133-25.4395 41.4062-26.2695L46.4355-39.5508L65.7715-39.5508L70.8008-26.2695C71.0938-25.4883 71.3867-25.1953 72.168-25.1953C72.8516-25.1953 73.3887-25.6836 73.3887-26.2695C73.3887-26.5625 73.3398-26.6602 73.1934-27.0508L57.7637-67.6758C57.4219-68.5059 56.8848-68.8477 56.1523-68.8477C55.2734-68.8477 54.7363-68.5059 54.4434-67.6758L38.9648-27.0508C38.8672-26.6602 38.8184-26.5625 38.8184-26.3184C38.8184-25.5859 39.3066-25.1953 40.1367-25.1953ZM47.3633-41.9922L56.0059-64.8926L56.2012-64.8926L64.8438-41.9922ZM24.4629 13.8672C18.4082 13.8672 14.8438 10.5469 14.8438 4.88281C14.8438-0.634766 18.4082-3.90625 24.4629-3.90625L77.8809-3.90625C79.8828-3.90625 81.5918-4.15039 83.2031-4.63867C79.0527 2.19727 80.4688 9.375 86.3281 13.8672Z"/>
  </g>
  <g id="Black-S" transform="matrix(1 0 0 1 2887.62 696)">
   <path d="M25 8.1543L75.9277 8.1543C79.4434 8.1543 81.7871 5.81055 81.7871 2.29492C81.7871-1.2207 79.4434-2.73438 76.9043-4.54102C72.8027-7.4707 72.1191-15.1855 77.1973-18.8477C81.25-21.7773 81.6406-23.7305 81.6406-27.832L81.6406-63.3301C81.6406-72.9004 75.9766-78.5645 66.4062-78.5645L25-78.5645C15.4297-78.5645 9.76562-72.9004 9.76562-63.3301L9.76562-7.08008C9.76562 2.49023 15.4297 8.1543 25 8.1543ZM23.9258-28.8086L23.9258-61.084C23.9258-63.3301 24.8047-64.4043 27.2461-64.4043L28.3203-64.4043L28.3203-29.1504L27.6367-29.1504C26.3672-29.1504 25.0977-29.0039 23.9258-28.8086ZM64.1602-64.4043C66.6016-64.4043 67.4805-63.3301 67.4805-61.084L67.4805-30.3711C67.4805-29.5898 67.041-29.1504 66.1621-29.1504L35.6445-29.1504L35.6445-64.4043ZM43.0176-33.0078C45.752-33.0078 47.4121-34.5703 48.0469-37.7441L48.1934-38.5742L54.7852-38.5742L54.9805-37.7441C55.5664-34.5703 57.2266-33.0078 59.9609-33.0078C63.1836-33.0078 64.9902-34.7656 64.9902-37.8418C64.9902-38.623 64.7949-39.7461 64.3066-41.2598L60.0098-54.8828C58.5449-59.5703 55.7617-61.7188 51.3672-61.7188C47.1191-61.7188 44.4824-59.5703 42.9688-54.8828L38.7207-41.2598C38.2324-39.7461 38.0371-38.623 38.0371-37.8418C38.0371-34.7656 39.8438-33.0078 43.0176-33.0078ZM49.7559-45.8008L51.3184-53.2715L51.6602-53.2715L53.2227-45.8008ZM29.1016-3.56445C24.0234-3.56445 21.6309-6.93359 21.6309-10.498C21.6309-14.0625 24.0234-17.4316 29.1016-17.4316L63.0371-17.4316C60.8398-13.0859 60.7422-7.8125 62.7441-3.56445Z"/>
  </g>
  <g id="Heavy-S" transform="matrix(1 0 0 1 2591.74 696)">
   <path d="M24.3164 7.61719L74.8047 7.61719C77.9785 7.61719 80.127 5.46875 80.127 2.29492C80.127-0.732422 78.0762-2.19727 75.8301-3.71094C71.582-6.29883 70.8496-13.623 75.8301-17.5293C79.2969-20.0684 80.0293-21.9727 80.0293-26.0254L80.0293-63.4766C80.0293-72.7539 74.7559-78.0273 65.4785-78.0273L24.3164-78.0273C15.0391-78.0273 9.76562-72.7539 9.76562-63.4766L9.76562-6.93359C9.76562 2.34375 15.0391 7.61719 24.3164 7.61719ZM22.2656-26.2207L22.2656-61.7188C22.2656-64.2578 23.3887-65.5762 26.0742-65.5762L26.6602-65.5762L26.6602-26.7578L26.5137-26.7578C25-26.7578 23.5352-26.5625 22.2656-26.2207ZM63.6719-65.5762C66.4062-65.5762 67.5293-64.2578 67.5293-61.7188L67.5293-28.2227C67.5293-27.2949 66.9922-26.7578 65.9668-26.7578L33.5938-26.7578L33.5938-65.5762ZM41.5527-32.2754C43.9453-32.2754 45.459-33.5938 46.0449-36.4258L46.6797-38.5742L54.3457-38.5742L54.9805-36.4258C55.5664-33.6426 57.0801-32.2754 59.4727-32.2754C62.3047-32.2754 63.916-33.8867 63.916-36.5723C63.916-37.2559 63.7207-38.2812 63.2812-39.6484L58.0078-55.5664C56.6895-59.6191 54.248-61.5234 50.3906-61.5234C46.6797-61.5234 44.3359-59.6191 43.0176-55.5664L37.6953-39.6484C37.2559-38.2812 37.1094-37.2559 37.1094-36.5723C37.1094-33.8867 38.7207-32.2754 41.5527-32.2754ZM48.1934-45.1172L50.3418-53.6133L50.6836-53.6133L52.832-45.1172ZM27.5391-2.97852C22.7539-2.97852 20.5078-6.05469 20.5078-9.57031C20.5078-13.0371 22.9004-16.1621 27.6367-16.1621L62.2559-16.1621C62.4512-16.1621 62.6465-16.1621 62.8906-16.1621C60.8398-11.9629 60.791-7.03125 62.6953-2.97852Z"/>
  </g>
  <g id="Bold-S" transform="matrix(1 0 0 1 2295.96 696)">
   <path d="M23.4863 7.03125L73.584 7.03125C76.3184 7.03125 78.2715 5.07812 78.2715 2.34375C78.2715-0.195312 76.5625-1.61133 74.6094-2.7832C70.2637-4.98047 69.4336-11.9141 74.3164-16.0156C77.0508-18.1641 78.2227-20.0684 78.2227-24.0723L78.2227-63.623C78.2227-72.5586 73.3398-77.4414 64.4531-77.4414L23.5352-77.4414C14.6484-77.4414 9.76562-72.5586 9.76562-63.623L9.76562-6.78711C9.76562 2.14844 14.6484 7.03125 23.4863 7.03125ZM63.1348-66.8457C66.2109-66.8457 67.627-65.332 67.627-62.4512L67.627-25.8301C67.627-24.707 66.9434-24.0723 65.7715-24.0723L31.25-24.0723L31.25-66.8457ZM20.3613-23.291L20.3613-62.4512C20.3613-65.332 21.7285-66.8457 24.7559-66.8457L24.7559-24.0723C23.1934-24.0234 21.6797-23.7793 20.3613-23.291ZM39.8926-31.4453C41.9434-31.4453 43.2129-32.5684 43.7988-34.9609L44.9707-38.5742L53.8574-38.5742L54.9805-34.9609C55.5664-32.5684 56.8848-31.4453 58.8867-31.4453C61.2793-31.4453 62.7441-32.8613 62.7441-35.1074C62.7441-35.791 62.5977-36.6211 62.207-37.793L55.7129-56.3965C54.6387-59.668 52.5391-61.2793 49.3164-61.2793C46.1914-61.2793 44.1895-59.7168 43.1152-56.3965L36.6211-37.793C36.2305-36.6211 36.084-35.791 36.084-35.1074C36.084-32.8613 37.5-31.4453 39.8926-31.4453ZM46.4355-44.3359L49.2188-54.0039L49.5605-54.0039L52.3438-44.3359ZM25.7324-2.34375C21.3867-2.34375 19.2383-5.0293 19.2383-8.54492C19.2383-11.9629 21.582-14.6973 25.9277-14.6973L62.0117-14.6973C62.207-14.6973 62.4512-14.6973 62.6953-14.7461C60.8398-10.6934 60.8398-6.10352 62.5977-2.34375Z"/>
  </g>
  <g id="Semibold-S" transform="matrix(1 0 0 1 1999.88 696)">
   <path d="M22.9492 6.64062L72.7539 6.64062C75.1953 6.64062 77.002 4.78516 77.002 2.34375C77.002 0.195312 75.5371-1.2207 73.7793-2.09961C69.3359-4.10156 68.5059-10.7422 73.291-14.9902C75.5371-16.8457 76.9531-18.7012 76.9531-22.7051L76.9531-63.7207C76.9531-72.4121 72.4121-77.0508 63.7695-77.0508L22.998-77.0508C14.3555-77.0508 9.76562-72.4609 9.76562-63.7207L9.76562-6.68945C9.76562 2.00195 14.3555 6.64062 22.9492 6.64062ZM62.793-67.7734C66.0645-67.7734 67.6758-66.0645 67.6758-62.9395L67.6758-24.1699C67.6758-22.9492 66.8945-22.2656 65.625-22.2656L29.6875-22.2656L29.6875-67.7734ZM19.0918-21.2891L19.0918-62.9395C19.0918-65.918 20.5078-67.5781 23.4863-67.7246L23.4863-22.2168C21.875-22.1191 20.3613-21.8262 19.0918-21.2891ZM38.7695-30.8594C40.5273-30.8594 41.6992-31.7871 42.2852-33.9844L43.7988-38.5742L53.5156-38.5742L54.9805-33.9844C55.5664-31.7871 56.7383-30.8594 58.4961-30.8594C60.5957-30.8594 61.9141-32.1289 61.9141-34.1309C61.9141-34.7656 61.7676-35.498 61.4258-36.5234L54.1504-56.9336C53.1738-59.7168 51.3184-61.084 48.584-61.084C45.8496-61.084 44.0918-59.7656 43.1152-56.9336L35.8398-36.5234C35.498-35.498 35.3516-34.7656 35.3516-34.1309C35.3516-32.1289 36.6699-30.8594 38.7695-30.8594ZM45.2637-43.8477L48.4375-54.248L48.8281-54.248L52.002-43.8477ZM24.5117-1.9043C20.4102-1.9043 18.3594-4.3457 18.3594-7.8125C18.3594-11.1816 20.7031-13.7207 24.8047-13.7207L61.8164-13.7207C62.0605-13.7207 62.3047-13.7207 62.5488-13.7207C60.791-9.81445 60.8398-5.51758 62.5488-1.9043Z"/>
  </g>
  <g id="Medium-S" transform="matrix(1 0 0 1 1703.66 696)">
   <path d="M22.5586 6.29883L72.1191 6.29883C74.3164 6.29883 76.0254 4.58984 76.0254 2.39258C76.0254 0.488281 74.7559-0.927734 73.1445-1.61133C68.6035-3.41797 67.7246-9.81445 72.5098-14.209C74.3652-15.8691 76.0254-17.6758 76.0254-21.6309L76.0254-63.8184C76.0254-72.3145 71.6797-76.7578 63.2324-76.7578L22.5586-76.7578C14.1113-76.7578 9.76562-72.3633 9.76562-63.8184L9.76562-6.64062C9.76562 1.95312 14.1113 6.29883 22.5586 6.29883ZM62.5-68.457C65.9668-68.457 67.6758-66.6016 67.6758-63.3301L67.6758-22.9492C67.6758-21.6309 66.8945-20.8496 65.5273-20.8496L28.4668-20.8496L28.4668-68.457ZM18.0664-19.7754L18.0664-63.3301C18.0664-66.3574 19.5801-68.1641 22.5098-68.4082L22.5098-20.8008C20.8984-20.7031 19.3848-20.3613 18.0664-19.7754ZM37.8906-30.4688C39.4531-30.4688 40.5273-31.25 41.1133-33.2031L42.8711-38.623L53.2227-38.623L55.0293-33.2031C55.5664-31.25 56.6406-30.4688 58.2031-30.4688C60.1074-30.4688 61.2793-31.5918 61.2793-33.3984C61.2793-33.9844 61.1816-34.6191 60.8398-35.5469L52.9297-57.373C52.0996-59.7656 50.4395-60.9863 47.998-60.9863C45.6055-60.9863 44.043-59.7656 43.1641-57.373L35.2539-35.5469C34.9609-34.6191 34.8145-33.9844 34.8145-33.3984C34.8145-31.5918 35.9863-30.4688 37.8906-30.4688ZM44.3359-43.4082L47.8516-54.4922L48.2422-54.4922L51.7578-43.4082ZM23.584-1.5625C19.6777-1.5625 17.6758-3.80859 17.6758-7.27539C17.6758-10.5957 20.0684-12.9883 23.9258-12.9883L61.7188-12.9883C61.9629-12.9883 62.207-12.9883 62.4512-12.9883C60.791-9.17969 60.8887-5.0293 62.5-1.5625Z"/>
  </g>
  <g id="Regular-S" transform="matrix(1 0 0 1 1407.56 696)">
   <path d="M22.0215 5.9082L71.2891 5.9082C73.1934 5.9082 74.8047 4.3457 74.8047 2.39258C74.8047 0.830078 73.7305-0.488281 72.3145-0.976562C67.6758-2.53906 66.7969-8.64258 71.4355-13.1836C72.9004-14.5508 74.8047-16.3574 74.8047-20.2637L74.8047-63.916C74.8047-72.2168 70.7031-76.3672 62.5-76.3672L22.0215-76.3672C13.8184-76.3672 9.76562-72.2656 9.76562-63.916L9.76562-6.54297C9.76562 1.80664 13.8184 5.9082 22.0215 5.9082ZM62.1582-69.3359C65.8203-69.3359 67.7246-67.334 67.7246-63.8184L67.7246-21.2891C67.7246-19.873 66.8457-19.043 65.3809-19.043L26.9043-19.043L26.9043-69.3359ZM16.7969-17.8223L16.7969-63.8184C16.7969-66.9434 18.3105-68.8477 21.2402-69.2383L21.2402-18.9453C19.5801-18.7988 18.1152-18.4082 16.7969-17.8223ZM36.7676-29.8828C38.0859-29.8828 39.0137-30.5176 39.5508-32.2266L41.6992-38.623L52.8809-38.623L55.0293-32.2266C55.5664-30.5176 56.4941-29.8828 57.8125-29.8828C59.4238-29.8828 60.498-30.9082 60.498-32.4219C60.498-32.959 60.3516-33.4961 60.1074-34.2773L51.3672-57.959C50.6836-59.8145 49.2676-60.791 47.2656-60.791C45.3125-60.791 43.9453-59.8145 43.2129-57.959L34.4727-34.2773C34.2285-33.4961 34.082-32.959 34.082-32.4219C34.082-30.9082 35.1562-29.8828 36.7676-29.8828ZM43.1152-42.9199L47.1191-54.7363L47.5098-54.7363L51.4648-42.9199ZM22.3633-1.12305C18.7012-1.12305 16.7969-3.125 16.7969-6.5918C16.7969-9.81445 19.1895-12.0117 22.8027-12.0117L61.5234-12.0117C61.8164-12.0117 62.0605-12.0117 62.3047-12.0117C60.791-8.30078 60.8887-4.39453 62.4512-1.12305Z"/>
  </g>
  <g id="Light-S" transform="matrix(1 0 0 1 1111.48 696)">
   <path d="M21.0938 5.66406L70.8496 5.66406C72.3633 5.66406 73.5352 4.49219 73.5352 2.92969C73.5352 1.80664 72.7539 0.732422 71.7285 0.341797C66.6992-1.85547 65.625-8.20312 70.459-13.1348C71.9238-14.6484 73.5352-16.6504 73.5352-20.3613L73.5352-64.4531C73.5352-72.168 69.6777-76.0742 62.0605-76.0742L21.2891-76.0742C13.623-76.0742 9.76562-72.168 9.76562-64.4531L9.76562-5.66406C9.76562 1.80664 13.623 5.66406 21.0938 5.66406ZM61.7676-70.6543C65.9668-70.6543 68.1152-68.4082 68.1152-64.3555L68.1152-21.0938C68.1152-18.457 66.6504-16.9922 63.9648-16.9922L24.2188-16.9922L24.2188-70.6543ZM15.1855-15.1855L15.1855-64.3555C15.1855-67.7734 16.748-69.9219 19.7754-70.5078L19.7754-16.8945C17.9688-16.6504 16.4551-16.0645 15.1855-15.1855ZM35.2051-29.0527C36.3281-29.0527 37.0605-29.5898 37.5488-31.0059L40.1855-38.5742L52.5391-38.5742L55.1758-31.0059C55.6641-29.5898 56.3965-29.0527 57.5195-29.0527C58.8379-29.0527 59.7656-29.9316 59.7656-31.1523C59.7656-31.5918 59.668-32.0312 59.4238-32.666L49.707-58.7402C49.1211-60.3027 47.998-61.1328 46.3379-61.1328C44.7266-61.1328 43.6035-60.3027 43.0176-58.7402L33.3008-32.666C33.0566-32.0312 32.959-31.5918 32.959-31.1523C32.959-29.8828 33.8379-29.0527 35.2051-29.0527ZM41.4062-42.2363L46.1914-55.8105L46.5332-55.8105L51.3184-42.2363ZM21.3867 0.244141C17.3828 0.244141 15.1855-1.95312 15.1855-5.71289C15.1855-9.27734 17.6758-11.5723 21.6797-11.5723L61.377-11.5723C62.0605-11.5723 62.6465-11.6699 63.2324-11.7676C61.1328-7.56836 61.5723-3.125 64.0625 0.244141Z"/>
  </g>
  <g id="Thin-S" transform="matrix(1 0 0 1 815.578 696)">
   <path d="M19.9219 5.32227L70.3125 5.32227C71.2402 5.32227 71.9238 4.63867 71.9238 3.66211C71.9238 3.02734 71.4844 2.39258 70.8984 2.14844C65.3809-1.02539 64.1113-7.56836 69.0918-13.1348C70.6543-14.7949 71.9238-17.041 71.9238-20.459L71.9238-65.1367C71.9238-72.0703 68.3594-75.6836 61.4258-75.6836L20.2637-75.6836C13.3789-75.6836 9.76562-72.0703 9.76562-65.1367L9.76562-4.49219C9.76562 1.80664 13.3789 5.32227 19.9219 5.32227ZM61.2793-72.3633C66.1133-72.3633 68.6035-69.8242 68.6035-65.0391L68.6035-20.8496C68.6035-16.5527 66.4062-14.3555 62.1094-14.3555L20.752-14.3555L20.752-72.3633ZM13.0859-11.7188L13.0859-65.0391C13.0859-68.8965 14.6973-71.2891 17.8223-72.0703L17.8223-14.1602C15.8203-13.8184 14.3066-12.9883 13.0859-11.7188ZM33.0078-28.0273C33.7891-28.0273 34.2285-28.3691 34.5703-29.3457L37.9883-38.5742L52.002-38.5742L55.3711-29.3457C55.7129-28.3691 56.2012-28.0273 57.0312-28.0273C57.8613-28.0273 58.4961-28.6133 58.4961-29.3945C58.4961-29.7363 58.4473-29.9805 58.3008-30.4199L47.168-59.8633C46.7773-60.9375 46.0449-61.4258 44.9707-61.4258C43.8965-61.4258 43.2129-60.9375 42.8223-59.8633L31.6895-30.4199C31.543-29.9805 31.4453-29.7363 31.4453-29.4434C31.4453-28.5645 32.0312-28.0273 33.0078-28.0273ZM38.916-41.2598L44.873-57.373L45.1172-57.373L51.0254-41.2598ZM20.0684 2.05078C15.625 2.05078 13.0859-0.390625 13.0859-4.58984C13.0859-8.59375 15.7227-11.0352 20.166-11.0352L61.1816-11.0352C62.4023-11.0352 63.4277-11.1816 64.4043-11.4746C61.6211-6.5918 62.4512-1.41602 66.2109 2.05078Z"/>
  </g>
  <g id="Ultralight-S" transform="matrix(1 0 0 1 519.281 696)">
   <path d="M19.2871 5.17578L70.0195 5.17578C70.7031 5.17578 71.0938 4.78516 71.0938 4.05273C71.0938 3.66211 70.8496 3.27148 70.5078 3.07617C64.6973-0.585938 63.3301-7.22656 68.4082-13.0859C69.9707-14.8926 71.0938-17.2363 71.0938-20.5566L71.0938-65.4785C71.0938-72.0215 67.627-75.4883 61.084-75.4883L19.7266-75.4883C13.2324-75.4883 9.76562-72.0215 9.76562-65.4785L9.76562-3.90625C9.76562 1.80664 13.2812 5.17578 19.2871 5.17578ZM19.873-73.291L60.9863-73.291C66.2109-73.291 68.8965-70.6055 68.8965-65.3809L68.8965-20.7031C68.8965-15.625 66.2598-12.9395 61.1328-12.9395L19.3359-12.9395C19.1895-12.9395 19.0918-12.9395 18.9453-12.9395L18.9453-73.2422C19.2383-73.291 19.5312-73.291 19.873-73.291ZM11.9629-9.91211L11.9629-65.3809C11.9629-69.4336 13.623-71.9727 16.8457-72.9004L16.8457-12.7441C14.6973-12.3535 13.1836-11.4258 11.9629-9.91211ZM31.8359-27.4902C32.4219-27.4902 32.7148-27.7344 32.959-28.4668L36.7676-38.623L51.6602-38.623L55.4688-28.4668C55.7129-27.7832 56.0059-27.4902 56.6895-27.4902C57.2754-27.4902 57.7637-27.9297 57.7637-28.4668C57.7637-28.7598 57.7148-28.8574 57.6172-29.1992L45.7031-60.4492C45.459-61.2305 44.9707-61.5723 44.2383-61.5723C43.457-61.5723 42.9688-61.2305 42.7246-60.4492L30.8105-29.1992C30.7129-28.8574 30.6641-28.7598 30.6641-28.5156C30.6641-27.8809 31.1035-27.4902 31.8359-27.4902ZM37.5488-40.7227L44.1406-58.2031L44.2871-58.2031L50.8789-40.7227ZM19.3848 2.97852C14.6973 2.97852 11.9629 0.390625 11.9629-4.00391C11.9629-8.25195 14.7461-10.7422 19.4336-10.7422L61.084-10.7422C62.5488-10.7422 63.8184-10.9375 64.9902-11.3281C61.8652-6.05469 62.9395-0.537109 67.334 2.97852Z"/>
  </g>
 </g>
</svg>
